<svg width="509" height="375" viewBox="0 0 509 375" fill="none" xmlns="http://www.w3.org/2000/svg">
<g clip-path="url(#clip0_437_4300)">
<path d="M296.492 66.1072C306.031 66.1072 313.765 58.2736 313.765 48.6103C313.765 38.9469 306.031 31.1133 296.492 31.1133C286.952 31.1133 279.219 38.9469 279.219 48.6103C279.219 58.2736 286.952 66.1072 296.492 66.1072Z" fill="#F2F2F2"/>
<path d="M430.483 325.783C456.158 305.974 468.42 272.687 460.743 240.934C460.553 240.145 460.351 239.358 460.139 238.572C455.05 219.724 442.458 201.809 424.107 195.787C408.697 190.73 391.878 194.619 375.802 192.608C344.245 188.66 319.78 162.795 302.565 135.715C285.351 108.634 272.121 78.3217 249.246 55.9493C211.541 19.0721 150.035 11.1324 103.286 35.1367C56.5377 59.1411 26.7594 112.397 28.0293 165.473C29.2993 218.549 60.4047 269.293 105.577 296.216C122.172 306.106 141.365 313.113 160.466 310.661C177.04 308.534 192.1 299.513 208.595 296.835C234.531 292.624 260.301 304.502 282.733 318.344C305.165 332.186 326.833 348.593 352.323 355.01C377.075 361.241 407.74 343.331 430.483 325.783Z" fill="#F2F2F2"/>
<path d="M393.595 36.2511C393.032 35.8711 392.463 35.5107 391.9 35.1437C375.631 24.6037 358.193 16.0411 339.947 9.63289L335.716 68.754H308.896V1.00261C307.207 0.648745 305.506 0.314544 303.804 0V68.754H271.931C254.385 68.754 237.557 61.6932 225.15 49.1251C212.742 36.5569 205.772 19.5107 205.772 1.73662C204.064 2.11014 202.369 2.50981 200.674 2.93576V68.754H174.714L170.684 12.3786C151.933 19.6631 134.132 29.2426 117.676 40.9038C117.391 41.1004 117.107 41.3035 116.829 41.5001C115.399 42.5158 113.989 43.5512 112.585 44.5997V270.147H189.095L187.743 251.176L180.303 147.016H330.121L322.681 251.176L321.329 270.147H396.992V38.5316C395.866 37.7584 394.734 36.9982 393.595 36.2511ZM200.674 129.815H179.074L175.083 73.9177H200.674V129.815ZM303.805 129.815H267.526V128.707C267.526 128.175 267.422 127.648 267.221 127.156C267.02 126.664 266.725 126.217 266.353 125.841C265.981 125.465 265.539 125.167 265.053 124.964C264.568 124.761 264.047 124.657 263.522 124.658H247.75C247.225 124.657 246.705 124.762 246.22 124.965C245.735 125.169 245.294 125.467 244.923 125.843C244.551 126.219 244.257 126.666 244.056 127.157C243.855 127.649 243.752 128.175 243.752 128.707V129.815H205.772V73.9177H303.805V129.815ZM308.896 129.815V73.9177H335.348L331.356 129.815H308.896Z" fill="#6F09F3"/>
<path d="M0 284.59C5.61985 291.336 11.6984 297.675 18.1911 303.561L490.809 304.217C497.302 298.33 503.38 291.991 509 285.246L0 284.59Z" fill="#3F3D56"/>
<path d="M320.498 223.844V280.005C320.499 280.721 320.78 281.407 321.279 281.913C321.779 282.42 322.456 282.704 323.163 282.705H405.323C406.029 282.704 406.707 282.42 407.206 281.913C407.706 281.407 407.987 280.721 407.988 280.005V223.844C407.986 223.129 407.704 222.443 407.205 221.938C406.706 221.433 406.029 221.148 405.323 221.147H323.163C322.457 221.148 321.78 221.433 321.281 221.938C320.781 222.443 320.5 223.129 320.498 223.844Z" fill="#3F3D56"/>
<path d="M322.425 224.543V279.313C322.425 279.696 322.576 280.062 322.843 280.333C323.11 280.603 323.471 280.755 323.849 280.756H404.638C405.016 280.755 405.378 280.603 405.645 280.333C405.912 280.062 406.062 279.696 406.062 279.313V224.543C406.062 224.16 405.912 223.793 405.645 223.522C405.378 223.251 405.016 223.098 404.638 223.098H323.849C323.471 223.098 323.109 223.251 322.842 223.522C322.575 223.793 322.425 224.16 322.425 224.543Z" fill="#FCFDF2"/>
<path d="M318.779 290.959C318.93 291.15 319.121 291.304 319.339 291.41C319.556 291.515 319.795 291.569 320.036 291.568H408.011C408.251 291.568 408.489 291.513 408.706 291.408C408.923 291.303 409.114 291.151 409.266 290.961C409.417 290.772 409.525 290.551 409.582 290.314C409.638 290.077 409.642 289.831 409.593 289.592L408.227 283.021C408.171 282.753 408.049 282.504 407.873 282.296C407.697 282.088 407.472 281.928 407.219 281.83C407.036 281.757 406.841 281.72 406.645 281.72H321.396C321.2 281.72 321.005 281.757 320.822 281.83C320.569 281.928 320.345 282.088 320.169 282.296C319.993 282.504 319.871 282.753 319.814 283.021L318.448 289.592C318.4 289.83 318.404 290.077 318.462 290.313C318.519 290.55 318.627 290.77 318.779 290.959Z" fill="#2F2E41"/>
<path d="M403.626 284.551H405.704C405.878 284.551 406.02 284.408 406.02 284.231V283.224C406.02 283.047 405.878 282.904 405.704 282.904H403.626C403.451 282.904 403.31 283.047 403.31 283.224V284.231C403.31 284.408 403.451 284.551 403.626 284.551Z" fill="#3F3D56"/>
<path d="M398.208 284.551H400.286C400.46 284.551 400.602 284.408 400.602 284.231V283.224C400.602 283.047 400.46 282.904 400.286 282.904H398.208C398.033 282.904 397.892 283.047 397.892 283.224V284.231C397.892 284.408 398.033 284.551 398.208 284.551Z" fill="#3F3D56"/>
<path d="M392.788 284.551H394.866C395.04 284.551 395.182 284.408 395.182 284.231V283.224C395.182 283.047 395.04 282.904 394.866 282.904H392.788C392.613 282.904 392.472 283.047 392.472 283.224V284.231C392.472 284.408 392.613 284.551 392.788 284.551Z" fill="#3F3D56"/>
<path d="M387.369 284.551H389.447C389.621 284.551 389.763 284.408 389.763 284.231V283.224C389.763 283.047 389.621 282.904 389.447 282.904H387.369C387.195 282.904 387.053 283.047 387.053 283.224V284.231C387.053 284.408 387.195 284.551 387.369 284.551Z" fill="#3F3D56"/>
<path d="M381.95 284.551H384.028C384.202 284.551 384.344 284.408 384.344 284.231V283.224C384.344 283.047 384.202 282.904 384.028 282.904H381.95C381.776 282.904 381.634 283.047 381.634 283.224V284.231C381.634 284.408 381.776 284.551 381.95 284.551Z" fill="#3F3D56"/>
<path d="M376.531 284.551H378.609C378.783 284.551 378.925 284.408 378.925 284.231V283.224C378.925 283.047 378.783 282.904 378.609 282.904H376.531C376.357 282.904 376.215 283.047 376.215 283.224V284.231C376.215 284.408 376.357 284.551 376.531 284.551Z" fill="#3F3D56"/>
<path d="M371.112 284.551H373.19C373.364 284.551 373.506 284.408 373.506 284.231V283.224C373.506 283.047 373.364 282.904 373.19 282.904H371.112C370.938 282.904 370.796 283.047 370.796 283.224V284.231C370.796 284.408 370.938 284.551 371.112 284.551Z" fill="#3F3D56"/>
<path d="M365.692 284.551H367.77C367.945 284.551 368.086 284.408 368.086 284.231V283.224C368.086 283.047 367.945 282.904 367.77 282.904H365.692C365.518 282.904 365.376 283.047 365.376 283.224V284.231C365.376 284.408 365.518 284.551 365.692 284.551Z" fill="#3F3D56"/>
<path d="M360.273 284.551H362.351C362.526 284.551 362.667 284.408 362.667 284.231V283.224C362.667 283.047 362.526 282.904 362.351 282.904H360.273C360.099 282.904 359.957 283.047 359.957 283.224V284.231C359.957 284.408 360.099 284.551 360.273 284.551Z" fill="#3F3D56"/>
<path d="M354.854 284.551H356.932C357.107 284.551 357.248 284.408 357.248 284.231V283.224C357.248 283.047 357.107 282.904 356.932 282.904H354.854C354.68 282.904 354.538 283.047 354.538 283.224V284.231C354.538 284.408 354.68 284.551 354.854 284.551Z" fill="#3F3D56"/>
<path d="M349.435 284.551H351.513C351.688 284.551 351.829 284.408 351.829 284.231V283.224C351.829 283.047 351.688 282.904 351.513 282.904H349.435C349.261 282.904 349.12 283.047 349.12 283.224V284.231C349.12 284.408 349.261 284.551 349.435 284.551Z" fill="#3F3D56"/>
<path d="M344.016 284.551H346.094C346.269 284.551 346.41 284.408 346.41 284.231V283.224C346.41 283.047 346.269 282.904 346.094 282.904H344.016C343.842 282.904 343.701 283.047 343.701 283.224V284.231C343.701 284.408 343.842 284.551 344.016 284.551Z" fill="#3F3D56"/>
<path d="M338.596 284.551H340.674C340.849 284.551 340.99 284.408 340.99 284.231V283.224C340.99 283.047 340.849 282.904 340.674 282.904H338.596C338.422 282.904 338.281 283.047 338.281 283.224V284.231C338.281 284.408 338.422 284.551 338.596 284.551Z" fill="#3F3D56"/>
<path d="M333.178 284.551H335.255C335.43 284.551 335.571 284.408 335.571 284.231V283.224C335.571 283.047 335.43 282.904 335.255 282.904H333.178C333.003 282.904 332.862 283.047 332.862 283.224V284.231C332.862 284.408 333.003 284.551 333.178 284.551Z" fill="#3F3D56"/>
<path d="M327.759 284.551H329.837C330.011 284.551 330.152 284.408 330.152 284.231V283.224C330.152 283.047 330.011 282.904 329.837 282.904H327.759C327.584 282.904 327.443 283.047 327.443 283.224V284.231C327.443 284.408 327.584 284.551 327.759 284.551Z" fill="#3F3D56"/>
<path d="M322.34 284.551H324.418C324.592 284.551 324.733 284.408 324.733 284.231V283.224C324.733 283.047 324.592 282.904 324.418 282.904H322.34C322.165 282.904 322.024 283.047 322.024 283.224V284.231C322.024 284.408 322.165 284.551 322.34 284.551Z" fill="#3F3D56"/>
<path d="M403.69 287.295H405.768C405.943 287.295 406.084 287.152 406.084 286.975V285.968C406.084 285.792 405.943 285.649 405.768 285.649H403.69C403.516 285.649 403.374 285.792 403.374 285.968V286.975C403.374 287.152 403.516 287.295 403.69 287.295Z" fill="#3F3D56"/>
<path d="M398.271 287.295H400.349C400.524 287.295 400.665 287.152 400.665 286.975V285.968C400.665 285.792 400.524 285.649 400.349 285.649H398.271C398.097 285.649 397.955 285.792 397.955 285.968V286.975C397.955 287.152 398.097 287.295 398.271 287.295Z" fill="#3F3D56"/>
<path d="M392.852 287.295H394.93C395.105 287.295 395.246 287.152 395.246 286.975V285.968C395.246 285.792 395.105 285.649 394.93 285.649H392.852C392.678 285.649 392.536 285.792 392.536 285.968V286.975C392.536 287.152 392.678 287.295 392.852 287.295Z" fill="#3F3D56"/>
<path d="M387.433 287.295H389.511C389.686 287.295 389.827 287.152 389.827 286.975V285.968C389.827 285.792 389.686 285.649 389.511 285.649H387.433C387.259 285.649 387.118 285.792 387.118 285.968V286.975C387.118 287.152 387.259 287.295 387.433 287.295Z" fill="#3F3D56"/>
<path d="M382.014 287.295H384.092C384.267 287.295 384.408 287.152 384.408 286.975V285.968C384.408 285.792 384.267 285.649 384.092 285.649H382.014C381.84 285.649 381.699 285.792 381.699 285.968V286.975C381.699 287.152 381.84 287.295 382.014 287.295Z" fill="#3F3D56"/>
<path d="M376.595 287.295H378.672C378.847 287.295 378.988 287.152 378.988 286.975V285.968C378.988 285.792 378.847 285.649 378.672 285.649H376.595C376.42 285.649 376.279 285.792 376.279 285.968V286.975C376.279 287.152 376.42 287.295 376.595 287.295Z" fill="#3F3D56"/>
<path d="M371.176 287.295H373.254C373.428 287.295 373.569 287.152 373.569 286.975V285.968C373.569 285.792 373.428 285.649 373.254 285.649H371.176C371.001 285.649 370.86 285.792 370.86 285.968V286.975C370.86 287.152 371.001 287.295 371.176 287.295Z" fill="#3F3D56"/>
<path d="M365.757 287.295H367.835C368.009 287.295 368.15 287.152 368.15 286.975V285.968C368.15 285.792 368.009 285.649 367.835 285.649H365.757C365.582 285.649 365.441 285.792 365.441 285.968V286.975C365.441 287.152 365.582 287.295 365.757 287.295Z" fill="#3F3D56"/>
<path d="M360.338 287.295H362.416C362.59 287.295 362.731 287.152 362.731 286.975V285.968C362.731 285.792 362.59 285.649 362.416 285.649H360.338C360.163 285.649 360.022 285.792 360.022 285.968V286.975C360.022 287.152 360.163 287.295 360.338 287.295Z" fill="#3F3D56"/>
<path d="M354.919 287.295H356.997C357.171 287.295 357.312 287.152 357.312 286.975V285.968C357.312 285.792 357.171 285.649 356.997 285.649H354.919C354.744 285.649 354.603 285.792 354.603 285.968V286.975C354.603 287.152 354.744 287.295 354.919 287.295Z" fill="#3F3D56"/>
<path d="M349.499 287.295H351.577C351.751 287.295 351.893 287.152 351.893 286.975V285.968C351.893 285.792 351.751 285.649 351.577 285.649H349.499C349.324 285.649 349.183 285.792 349.183 285.968V286.975C349.183 287.152 349.324 287.295 349.499 287.295Z" fill="#3F3D56"/>
<path d="M344.08 287.295H346.158C346.332 287.295 346.474 287.152 346.474 286.975V285.968C346.474 285.792 346.332 285.649 346.158 285.649H344.08C343.905 285.649 343.764 285.792 343.764 285.968V286.975C343.764 287.152 343.905 287.295 344.08 287.295Z" fill="#3F3D56"/>
<path d="M338.661 287.295H340.739C340.913 287.295 341.055 287.152 341.055 286.975V285.968C341.055 285.792 340.913 285.649 340.739 285.649H338.661C338.487 285.649 338.345 285.792 338.345 285.968V286.975C338.345 287.152 338.487 287.295 338.661 287.295Z" fill="#3F3D56"/>
<path d="M333.242 287.295H335.32C335.494 287.295 335.636 287.152 335.636 286.975V285.968C335.636 285.792 335.494 285.649 335.32 285.649H333.242C333.068 285.649 332.926 285.792 332.926 285.968V286.975C332.926 287.152 333.068 287.295 333.242 287.295Z" fill="#3F3D56"/>
<path d="M327.823 287.295H329.901C330.075 287.295 330.217 287.152 330.217 286.975V285.968C330.217 285.792 330.075 285.649 329.901 285.649H327.823C327.649 285.649 327.507 285.792 327.507 285.968V286.975C327.507 287.152 327.649 287.295 327.823 287.295Z" fill="#3F3D56"/>
<path d="M322.403 287.295H324.481C324.655 287.295 324.797 287.152 324.797 286.975V285.968C324.797 285.792 324.655 285.649 324.481 285.649H322.403C322.229 285.649 322.087 285.792 322.087 285.968V286.975C322.087 287.152 322.229 287.295 322.403 287.295Z" fill="#3F3D56"/>
<path d="M358.712 290.589H379.756C379.931 290.589 380.072 290.446 380.072 290.269V289.262C380.072 289.086 379.931 288.943 379.756 288.943H358.712C358.537 288.943 358.396 289.086 358.396 289.262V290.269C358.396 290.446 358.537 290.589 358.712 290.589Z" fill="#3F3D56"/>
<path d="M336.415 235.08H334.575C334.018 235.08 333.565 235.538 333.565 236.103C333.565 236.668 334.018 237.126 334.575 237.126H336.415C336.973 237.126 337.425 236.668 337.425 236.103C337.425 235.538 336.973 235.08 336.415 235.08Z" fill="white"/>
<path d="M357.455 235.08H355.615C355.058 235.08 354.605 235.538 354.605 236.103C354.605 236.668 355.058 237.126 355.615 237.126H357.455C358.013 237.126 358.465 236.668 358.465 236.103C358.465 235.538 358.013 235.08 357.455 235.08Z" fill="white"/>
<path d="M363.416 235.08H361.576C361.019 235.08 360.566 235.538 360.566 236.103C360.566 236.668 361.019 237.126 361.576 237.126H363.416C363.974 237.126 364.426 236.668 364.426 236.103C364.426 235.538 363.974 235.08 363.416 235.08Z" fill="white"/>
<path d="M351.732 234.91H340.299C339.741 234.91 339.289 235.368 339.289 235.933C339.289 236.498 339.741 236.956 340.299 236.956H351.732C352.29 236.956 352.742 236.498 352.742 235.933C352.742 235.368 352.29 234.91 351.732 234.91Z" fill="white"/>
<path d="M379.784 234.91H368.351C367.793 234.91 367.341 235.368 367.341 235.933C367.341 236.498 367.793 236.956 368.351 236.956H379.784C380.342 236.956 380.794 236.498 380.794 235.933C380.794 235.368 380.342 234.91 379.784 234.91Z" fill="white"/>
<path d="M342.026 239.697H340.187C339.629 239.697 339.177 240.155 339.177 240.72C339.177 241.285 339.629 241.743 340.187 241.743H342.026C342.584 241.743 343.036 241.285 343.036 240.72C343.036 240.155 342.584 239.697 342.026 239.697Z" fill="white"/>
<path d="M363.065 239.697H361.226C360.668 239.697 360.216 240.155 360.216 240.72C360.216 241.285 360.668 241.743 361.226 241.743H363.065C363.623 241.743 364.075 241.285 364.075 240.72C364.075 240.155 363.623 239.697 363.065 239.697Z" fill="white"/>
<path d="M369.026 239.697H367.187C366.629 239.697 366.177 240.155 366.177 240.72C366.177 241.285 366.629 241.743 367.187 241.743H369.026C369.584 241.743 370.036 241.285 370.036 240.72C370.036 240.155 369.584 239.697 369.026 239.697Z" fill="white"/>
<path d="M357.343 239.527H345.909C345.352 239.527 344.899 239.985 344.899 240.55C344.899 241.115 345.352 241.573 345.909 241.573H357.343C357.9 241.573 358.353 241.115 358.353 240.55C358.353 239.985 357.9 239.527 357.343 239.527Z" fill="white"/>
<path d="M385.394 239.527H373.961C373.403 239.527 372.951 239.985 372.951 240.55C372.951 241.115 373.403 241.573 373.961 241.573H385.394C385.952 241.573 386.404 241.115 386.404 240.55C386.404 239.985 385.952 239.527 385.394 239.527Z" fill="white"/>
<path d="M347.637 244.315H345.797C345.239 244.315 344.787 244.773 344.787 245.338C344.787 245.903 345.239 246.361 345.797 246.361H347.637C348.194 246.361 348.646 245.903 348.646 245.338C348.646 244.773 348.194 244.315 347.637 244.315Z" fill="white"/>
<path d="M368.676 244.315H366.836C366.278 244.315 365.826 244.773 365.826 245.338C365.826 245.903 366.278 246.361 366.836 246.361H368.676C369.233 246.361 369.686 245.903 369.686 245.338C369.686 244.773 369.233 244.315 368.676 244.315Z" fill="white"/>
<path d="M374.637 244.315H372.797C372.239 244.315 371.787 244.773 371.787 245.338C371.787 245.903 372.239 246.361 372.797 246.361H374.637C375.194 246.361 375.646 245.903 375.646 245.338C375.646 244.773 375.194 244.315 374.637 244.315Z" fill="white"/>
<path d="M362.953 244.145H351.52C350.962 244.145 350.51 244.603 350.51 245.168C350.51 245.733 350.962 246.191 351.52 246.191H362.953C363.511 246.191 363.963 245.733 363.963 245.168C363.963 244.603 363.511 244.145 362.953 244.145Z" fill="white"/>
<path d="M391.005 244.145H379.571C379.014 244.145 378.562 244.603 378.562 245.168C378.562 245.733 379.014 246.191 379.571 246.191H391.005C391.563 246.191 392.015 245.733 392.015 245.168C392.015 244.603 391.563 244.145 391.005 244.145Z" fill="white"/>
<path d="M353.247 248.933H351.407C350.85 248.933 350.397 249.391 350.397 249.956C350.397 250.521 350.85 250.979 351.407 250.979H353.247C353.805 250.979 354.257 250.521 354.257 249.956C354.257 249.391 353.805 248.933 353.247 248.933Z" fill="white"/>
<path d="M374.286 248.933H372.446C371.889 248.933 371.437 249.391 371.437 249.956C371.437 250.521 371.889 250.979 372.446 250.979H374.286C374.844 250.979 375.296 250.521 375.296 249.956C375.296 249.391 374.844 248.933 374.286 248.933Z" fill="white"/>
<path d="M380.248 248.933H378.408C377.851 248.933 377.398 249.391 377.398 249.956C377.398 250.521 377.851 250.979 378.408 250.979H380.248C380.806 250.979 381.258 250.521 381.258 249.956C381.258 249.391 380.806 248.933 380.248 248.933Z" fill="white"/>
<path d="M368.563 248.763H357.13C356.572 248.763 356.12 249.221 356.12 249.786C356.12 250.351 356.572 250.809 357.13 250.809H368.563C369.121 250.809 369.573 250.351 369.573 249.786C369.573 249.221 369.121 248.763 368.563 248.763Z" fill="white"/>
<path d="M357.455 267.295H355.615C355.058 267.295 354.605 267.753 354.605 268.318C354.605 268.883 355.058 269.341 355.615 269.341H357.455C358.013 269.341 358.465 268.883 358.465 268.318C358.465 267.753 358.013 267.295 357.455 267.295Z" fill="white"/>
<path d="M363.416 267.295H361.576C361.019 267.295 360.566 267.753 360.566 268.318C360.566 268.883 361.019 269.341 361.576 269.341H363.416C363.974 269.341 364.426 268.883 364.426 268.318C364.426 267.753 363.974 267.295 363.416 267.295Z" fill="white"/>
<path d="M379.784 267.465H368.351C367.793 267.465 367.341 267.923 367.341 268.488C367.341 269.053 367.793 269.511 368.351 269.511H379.784C380.342 269.511 380.794 269.053 380.794 268.488C380.794 267.923 380.342 267.465 379.784 267.465Z" fill="white"/>
<path d="M336.416 267.295H334.576C334.019 267.295 333.566 267.753 333.566 268.318C333.566 268.883 334.019 269.341 334.576 269.341H336.416C336.974 269.341 337.426 268.883 337.426 268.318C337.426 267.753 336.974 267.295 336.416 267.295Z" fill="white"/>
<path d="M351.732 267.465H340.299C339.741 267.465 339.289 267.923 339.289 268.488C339.289 269.053 339.741 269.511 340.299 269.511H351.732C352.29 269.511 352.742 269.053 352.742 268.488C352.742 267.923 352.29 267.465 351.732 267.465Z" fill="white"/>
<path d="M342.026 262.677H340.187C339.629 262.677 339.177 263.135 339.177 263.7C339.177 264.265 339.629 264.723 340.187 264.723H342.026C342.584 264.723 343.036 264.265 343.036 263.7C343.036 263.135 342.584 262.677 342.026 262.677Z" fill="white"/>
<path d="M363.065 262.677H361.226C360.668 262.677 360.216 263.135 360.216 263.7C360.216 264.265 360.668 264.723 361.226 264.723H363.065C363.623 264.723 364.075 264.265 364.075 263.7C364.075 263.135 363.623 262.677 363.065 262.677Z" fill="white"/>
<path d="M369.026 262.677H367.187C366.629 262.677 366.177 263.135 366.177 263.7C366.177 264.265 366.629 264.723 367.187 264.723H369.026C369.584 264.723 370.036 264.265 370.036 263.7C370.036 263.135 369.584 262.677 369.026 262.677Z" fill="white"/>
<path d="M357.343 262.848H345.909C345.352 262.848 344.899 263.306 344.899 263.871C344.899 264.436 345.352 264.894 345.909 264.894H357.343C357.9 264.894 358.353 264.436 358.353 263.871C358.353 263.306 357.9 262.848 357.343 262.848Z" fill="white"/>
<path d="M347.637 258.06H345.797C345.239 258.06 344.787 258.518 344.787 259.083C344.787 259.648 345.239 260.106 345.797 260.106H347.637C348.194 260.106 348.646 259.648 348.646 259.083C348.646 258.518 348.194 258.06 347.637 258.06Z" fill="white"/>
<path d="M368.676 258.06H366.836C366.278 258.06 365.826 258.518 365.826 259.083C365.826 259.648 366.278 260.106 366.836 260.106H368.676C369.233 260.106 369.686 259.648 369.686 259.083C369.686 258.518 369.233 258.06 368.676 258.06Z" fill="white"/>
<path d="M374.637 258.06H372.797C372.239 258.06 371.787 258.518 371.787 259.083C371.787 259.648 372.239 260.106 372.797 260.106H374.637C375.194 260.106 375.646 259.648 375.646 259.083C375.646 258.518 375.194 258.06 374.637 258.06Z" fill="white"/>
<path d="M362.953 258.23H351.52C350.962 258.23 350.51 258.688 350.51 259.253C350.51 259.818 350.962 260.276 351.52 260.276H362.953C363.511 260.276 363.963 259.818 363.963 259.253C363.963 258.688 363.511 258.23 362.953 258.23Z" fill="white"/>
<path d="M353.247 253.441H351.407C350.85 253.441 350.397 253.899 350.397 254.464C350.397 255.029 350.85 255.487 351.407 255.487H353.247C353.805 255.487 354.257 255.029 354.257 254.464C354.257 253.899 353.805 253.441 353.247 253.441Z" fill="white"/>
<path d="M374.286 253.441H372.446C371.889 253.441 371.437 253.899 371.437 254.464C371.437 255.029 371.889 255.487 372.446 255.487H374.286C374.844 255.487 375.296 255.029 375.296 254.464C375.296 253.899 374.844 253.441 374.286 253.441Z" fill="white"/>
<path d="M380.248 253.441H378.408C377.851 253.441 377.398 253.899 377.398 254.464C377.398 255.029 377.851 255.487 378.408 255.487H380.248C380.806 255.487 381.258 255.029 381.258 254.464C381.258 253.899 380.806 253.441 380.248 253.441Z" fill="white"/>
<path d="M368.563 253.612H357.13C356.572 253.612 356.12 254.07 356.12 254.635C356.12 255.2 356.572 255.658 357.13 255.658H368.563C369.121 255.658 369.573 255.2 369.573 254.635C369.573 254.07 369.121 253.612 368.563 253.612Z" fill="white"/>
<path d="M326.635 321.412L317.999 307.584L345.106 285.695L356.294 273.139C357.748 271.508 359.599 270.292 361.662 269.612C363.725 268.932 365.928 268.813 368.051 269.266C370.173 269.719 372.142 270.728 373.759 272.193C375.376 273.658 376.585 275.527 377.266 277.613C378.274 280.706 378.057 284.074 376.661 287.007C375.264 289.94 372.798 292.209 369.781 293.335L352.089 299.937L326.635 321.412Z" fill="#FFB6B6"/>
<path d="M124.006 221.151V288.358H170.486V221.151C170.487 220.667 170.335 220.196 170.052 219.807C169.769 219.418 169.37 219.131 168.914 218.988C168.699 218.916 168.474 218.881 168.248 218.883H126.251C125.956 218.883 125.665 218.941 125.392 219.055C125.12 219.168 124.873 219.335 124.664 219.546C124.456 219.756 124.29 220.007 124.177 220.282C124.064 220.557 124.006 220.853 124.006 221.151ZM142.145 244.243C142.157 242.919 142.685 241.652 143.615 240.719C144.544 239.787 145.799 239.264 147.107 239.264C148.415 239.264 149.67 239.787 150.599 240.719C151.528 241.652 152.057 242.919 152.069 244.243V252.042C152.062 253.37 151.536 254.642 150.607 255.579C149.677 256.516 148.419 257.042 147.107 257.042C145.795 257.042 144.537 256.516 143.607 255.579C142.678 254.642 142.152 253.37 142.145 252.042V244.243Z" fill="#2F2E41"/>
<path d="M123.863 286.209V292.69C123.864 293.026 123.996 293.347 124.23 293.585C124.463 293.823 124.78 293.958 125.112 293.961H169.38C169.711 293.959 170.029 293.825 170.263 293.587C170.497 293.348 170.628 293.026 170.628 292.69V286.209H123.863Z" fill="#3F3D56"/>
<path d="M50.8857 119.894V242.605C50.887 244.169 51.5008 245.668 52.5924 246.774C53.684 247.88 55.1642 248.501 56.7079 248.503H236.225C237.769 248.501 239.249 247.88 240.34 246.774C241.432 245.668 242.046 244.169 242.047 242.605V119.894C242.043 118.331 241.429 116.834 240.337 115.73C239.246 114.626 237.767 114.004 236.225 114.002H56.7079C55.1655 114.004 53.6867 114.626 52.5955 115.73C51.5042 116.834 50.8894 118.331 50.8857 119.894Z" fill="#3F3D56"/>
<path d="M55.0967 121.421V241.091C55.0981 241.927 55.4264 242.728 56.0096 243.319C56.5928 243.909 57.3835 244.242 58.2083 244.243H234.73C235.555 244.242 236.345 243.909 236.929 243.319C237.512 242.728 237.84 241.927 237.842 241.091V121.421C237.842 120.584 237.514 119.782 236.931 119.19C236.347 118.598 235.556 118.264 234.73 118.262H58.2083C57.3825 118.264 56.5911 118.598 56.0078 119.19C55.4244 119.782 55.0968 120.584 55.0967 121.421Z" fill="white"/>
<path d="M87.8564 293.522C88.036 293.75 88.2644 293.934 88.5244 294.06C88.7843 294.186 89.069 294.251 89.3572 294.249H194.376C194.663 294.249 194.947 294.184 195.206 294.058C195.465 293.933 195.694 293.751 195.875 293.525C196.056 293.299 196.185 293.035 196.252 292.752C196.32 292.469 196.324 292.175 196.265 291.89L194.635 284.046C194.567 283.726 194.422 283.429 194.212 283.18C194.002 282.932 193.733 282.741 193.432 282.624C193.213 282.537 192.981 282.493 192.746 282.493H90.9809C90.7463 282.493 90.5137 282.537 90.2952 282.624C89.9935 282.741 89.7253 282.932 89.5152 283.18C89.305 283.429 89.1595 283.726 89.092 284.046L87.4618 291.89C87.4038 292.175 87.4091 292.469 87.4773 292.751C87.5456 293.033 87.6751 293.297 87.8564 293.522Z" fill="#2F2E41"/>
<path d="M229.002 134.748H63.8309C63.6592 134.744 63.4958 134.672 63.3758 134.548C63.2557 134.423 63.1885 134.256 63.1885 134.082C63.1885 133.908 63.2557 133.741 63.3758 133.617C63.4958 133.493 63.6592 133.421 63.8309 133.417H229.002C229.173 133.421 229.337 133.493 229.457 133.617C229.577 133.741 229.644 133.908 229.644 134.082C229.644 134.256 229.577 134.423 229.457 134.548C229.337 134.672 229.173 134.744 229.002 134.748Z" fill="#3F3D56"/>
<path d="M75.075 130.02C77.2009 130.02 78.9243 128.235 78.9243 126.034C78.9243 123.832 77.2009 122.047 75.075 122.047C72.949 122.047 71.2256 123.832 71.2256 126.034C71.2256 128.235 72.949 130.02 75.075 130.02Z" fill="#6F09F3"/>
<path d="M88.3718 130.02C90.4978 130.02 92.2212 128.235 92.2212 126.034C92.2212 123.832 90.4978 122.047 88.3718 122.047C86.2459 122.047 84.5225 123.832 84.5225 126.034C84.5225 128.235 86.2459 130.02 88.3718 130.02Z" fill="#6F09F3"/>
<path d="M101.67 130.02C103.796 130.02 105.519 128.235 105.519 126.034C105.519 123.832 103.796 122.047 101.67 122.047C99.5437 122.047 97.8203 123.832 97.8203 126.034C97.8203 128.235 99.5437 130.02 101.67 130.02Z" fill="#6F09F3"/>
<path d="M220.995 123.033H211.55C211.363 123.037 211.186 123.115 211.055 123.251C210.925 123.386 210.852 123.568 210.852 123.757C210.852 123.946 210.925 124.128 211.055 124.263C211.186 124.398 211.363 124.477 211.55 124.481H220.995C221.183 124.478 221.362 124.401 221.494 124.265C221.626 124.13 221.7 123.947 221.7 123.757C221.7 123.567 221.626 123.384 221.494 123.248C221.362 123.113 221.183 123.035 220.995 123.033Z" fill="#3F3D56"/>
<path d="M220.995 125.752H211.55C211.363 125.756 211.185 125.834 211.054 125.97C210.924 126.105 210.851 126.287 210.851 126.476C210.851 126.665 210.924 126.847 211.054 126.983C211.185 127.118 211.363 127.196 211.55 127.2H220.995C221.183 127.198 221.362 127.121 221.495 126.985C221.627 126.849 221.701 126.667 221.701 126.476C221.701 126.286 221.627 126.103 221.495 125.967C221.362 125.832 221.183 125.754 220.995 125.752Z" fill="#3F3D56"/>
<path d="M220.995 128.472H211.55C211.363 128.476 211.186 128.554 211.055 128.69C210.925 128.825 210.852 129.007 210.852 129.196C210.852 129.385 210.925 129.567 211.055 129.702C211.186 129.837 211.363 129.915 211.55 129.92H220.995C221.183 129.917 221.362 129.84 221.494 129.704C221.626 129.569 221.7 129.386 221.7 129.196C221.7 129.005 221.626 128.823 221.494 128.687C221.362 128.552 221.183 128.474 220.995 128.472Z" fill="#3F3D56"/>
<path d="M448.692 289.053C448.977 289.894 449.517 290.621 450.236 291.131C450.955 291.641 451.814 291.907 452.692 291.891L469.829 291.445C470.713 291.427 471.567 291.121 472.265 290.571C472.962 290.02 473.465 289.257 473.698 288.393L476.124 262.124C476.984 262.519 477.921 262.714 478.865 262.694C479.686 262.674 480.494 262.489 481.244 262.152C481.994 261.815 482.672 261.331 483.237 260.728C483.803 260.126 484.246 259.417 484.541 258.641C484.836 257.865 484.977 257.038 484.956 256.207C484.936 255.375 484.754 254.556 484.421 253.797C484.088 253.037 483.61 252.351 483.015 251.778C482.421 251.205 481.72 250.756 480.954 250.457C480.189 250.159 479.372 250.015 478.551 250.036C478.174 250.035 477.797 250.075 477.428 250.155C477.027 249.715 476.539 249.365 475.996 249.127C475.453 248.89 474.867 248.771 474.275 248.777L447.913 249.466C447.695 249.474 447.477 249.502 447.263 249.548C446.685 249.657 446.137 249.89 445.655 250.232C445.173 250.574 444.77 251.016 444.471 251.53C444.172 252.043 443.986 252.615 443.923 253.207C443.861 253.799 443.925 254.398 444.111 254.964L448.692 289.053ZM476.621 260.34L478.347 254.08C478.543 253.357 478.547 252.594 478.36 251.869C478.444 251.869 478.517 251.829 478.601 251.828C479.784 251.804 480.929 252.255 481.784 253.084C482.639 253.913 483.135 255.051 483.163 256.25C483.191 257.448 482.748 258.609 481.932 259.478C481.116 260.346 479.994 260.851 478.81 260.883C478.046 260.907 477.289 260.719 476.621 260.34Z" fill="#6F09F3"/>
<path d="M447.264 249.548C447.825 252.801 454.14 255.088 461.732 254.691C468.714 254.365 474.423 251.881 475.469 248.938C475.082 248.822 474.679 248.768 474.276 248.777L447.914 249.466C447.695 249.475 447.478 249.502 447.264 249.548Z" fill="#3F3D56"/>
<path d="M463.124 274.618C463.158 274.609 463.191 274.594 463.221 274.575L466.943 272.107C466.988 272.077 467.025 272.037 467.051 271.989C467.076 271.941 467.09 271.887 467.09 271.833C467.09 271.779 467.076 271.725 467.051 271.677C467.025 271.629 466.988 271.589 466.943 271.559L463.075 268.992C463.039 268.969 463 268.952 462.958 268.944C462.916 268.936 462.873 268.936 462.831 268.945C462.79 268.953 462.75 268.97 462.715 268.995C462.68 269.019 462.649 269.05 462.626 269.086C462.603 269.122 462.587 269.162 462.579 269.205C462.571 269.247 462.571 269.291 462.58 269.333C462.589 269.375 462.606 269.415 462.63 269.451C462.654 269.486 462.685 269.517 462.72 269.54L466.176 271.832L462.867 274.026C462.803 274.069 462.756 274.133 462.734 274.207C462.712 274.281 462.717 274.361 462.748 274.432C462.779 274.503 462.834 274.561 462.902 274.595C462.971 274.629 463.05 274.637 463.124 274.618Z" fill="#FCFDF2"/>
<path d="M457.246 274.893C457.309 274.877 457.365 274.842 457.408 274.793C457.451 274.745 457.479 274.684 457.487 274.62C457.496 274.555 457.486 274.489 457.457 274.431C457.429 274.372 457.384 274.323 457.328 274.291L453.897 272.298L457.213 269.804C457.247 269.778 457.276 269.746 457.298 269.709C457.319 269.672 457.334 269.631 457.34 269.589C457.346 269.546 457.344 269.503 457.334 269.461C457.323 269.419 457.305 269.38 457.28 269.346C457.254 269.311 457.223 269.282 457.186 269.26C457.15 269.238 457.109 269.223 457.067 269.217C457.025 269.211 456.983 269.213 456.941 269.223C456.9 269.234 456.862 269.252 456.827 269.278L453.115 272.071C453.072 272.104 453.038 272.146 453.015 272.196C452.992 272.245 452.982 272.299 452.985 272.354C452.988 272.408 453.005 272.46 453.033 272.507C453.061 272.553 453.1 272.591 453.147 272.618L457.006 274.859C457.079 274.902 457.165 274.914 457.246 274.893Z" fill="#FCFDF2"/>
<path d="M462.754 276.781C462.785 276.773 462.815 276.76 462.842 276.743C462.879 276.72 462.91 276.691 462.935 276.656C462.961 276.621 462.979 276.582 462.989 276.54C462.999 276.498 463.001 276.455 462.994 276.413C462.988 276.37 462.973 276.329 462.951 276.292L457.675 267.506C457.63 267.432 457.558 267.379 457.475 267.358C457.392 267.338 457.304 267.352 457.23 267.397C457.157 267.442 457.105 267.515 457.084 267.599C457.064 267.684 457.078 267.773 457.122 267.847L462.398 276.633C462.434 276.693 462.488 276.74 462.552 276.766C462.616 276.793 462.687 276.798 462.754 276.781Z" fill="#FCFDF2"/>
<path d="M166.152 170.919H137.565C136.399 170.919 135.453 171.877 135.453 173.058V175.888C135.453 177.069 136.399 178.027 137.565 178.027H166.152C167.318 178.027 168.264 177.069 168.264 175.888V173.058C168.264 171.877 167.318 170.919 166.152 170.919Z" fill="#FCFDF2"/>
<path d="M182.815 185.134H120.901C119.734 185.134 118.789 186.092 118.789 187.273V190.102C118.789 191.284 119.734 192.241 120.901 192.241H182.815C183.981 192.241 184.926 191.284 184.926 190.102V187.273C184.926 186.092 183.981 185.134 182.815 185.134Z" fill="#E6E6E6"/>
<path d="M182.815 199.349H120.901C119.734 199.349 118.789 200.306 118.789 201.488V204.317C118.789 205.498 119.734 206.456 120.901 206.456H182.815C183.981 206.456 184.926 205.498 184.926 204.317V201.488C184.926 200.306 183.981 199.349 182.815 199.349Z" fill="#E6E6E6"/>
<path d="M188.063 246.947L188.204 247.395L188.211 247.41L192.432 260.41L197.288 275.391L206.424 303.543L206.513 307.917V307.932L207.192 343.111L205.31 347.88L207.428 355.7C207.428 355.7 206.454 343.88 201.229 350.668C198.27 354.525 194.809 358.472 191.967 362.172C196.107 363.869 200.314 365.404 204.587 366.777C205.509 367.076 206.439 367.36 207.369 367.644C207.568 367.704 207.767 367.764 207.967 367.824C222.13 372.067 236.773 374.451 251.536 374.918C252.304 374.94 253.057 374.955 253.787 374.97C254.046 374.978 254.296 374.985 254.547 374.985C255.374 374.993 256.193 375 257.019 375C258.687 375 260.348 374.975 262.001 374.925C274.236 374.576 286.4 372.91 298.287 369.954C298.206 364.983 297.984 359.175 297.667 352.97C297.519 349.928 294.206 346.631 294.007 343.446C293.866 341.054 296.84 338.804 296.685 336.375C295.682 321.416 294.427 327.158 293.497 316.566C293.401 315.527 293.313 314.532 293.232 313.583C292.634 306.78 292.221 302.527 292.221 302.527L296.191 277.178L302.427 237.378L301.947 236.579L301.408 236.309L268.517 219.819L266.731 215.184C266.211 213.849 265.308 212.702 264.139 211.89C262.97 211.079 261.588 210.64 260.171 210.631L238.504 210.542C237.379 210.536 236.27 210.803 235.268 211.319C234.265 211.835 233.399 212.586 232.74 213.509L226.873 221.74L188.063 246.947Z" fill="#3F3D56"/>
<path d="M211.42 297.279L206.513 307.916L203.162 315.182L197.399 345.749L194.513 348.852L192.041 337.869L166.166 343.689C165.318 338.912 165.939 343.851 165.415 338.61C165.563 338.461 165.718 338.311 165.873 338.162C166.286 337.773 166.633 337.407 166.625 337.055C166.33 318.98 167.216 288.218 174.61 269.582C175.768 266.539 177.295 263.654 179.156 260.993C179.304 260.791 179.444 260.589 179.584 260.387C182.994 255.551 185.148 250.789 188.204 247.403V247.395C188.223 247.38 188.24 247.362 188.255 247.343C188.266 247.337 188.276 247.33 188.285 247.32L209.273 236.047L210.173 261.673L210.815 280.093L211.42 297.279Z" fill="#3F3D56"/>
<path d="M287.099 300.3L293.229 313.586L295.368 318.213L301.13 348.777L304.006 351.872L306.484 340.892L307.648 340.651L328.646 336.245L334.766 355.935C336.146 353.606 336.689 350.867 336.305 348.18C335.92 345.493 334.632 343.023 332.656 341.187C332.239 340.804 331.89 340.431 331.9 340.078C332.249 318.818 330.965 279.998 319.371 264.02C315.689 258.95 313.48 253.899 310.266 250.371C310.256 250.361 310.256 250.351 310.246 250.351L302.424 237.377L301.946 236.581L301.409 236.309L287.099 300.3Z" fill="#3F3D56"/>
<path d="M249.963 204.295C265.882 204.295 278.788 191.222 278.788 175.096C278.788 158.97 265.882 145.897 249.963 145.897C234.043 145.897 221.138 158.97 221.138 175.096C221.138 191.222 234.043 204.295 249.963 204.295Z" fill="#FFB6B6"/>
<path d="M288.923 154.701C288.7 154.459 288.431 154.265 288.132 154.131C287.833 153.997 287.51 153.926 287.183 153.921L287.617 152.702C287.758 152.318 287.796 151.903 287.727 151.499C287.658 151.096 287.485 150.718 287.224 150.404C286.963 150.091 286.625 149.853 286.244 149.716C285.863 149.579 285.452 149.546 285.055 149.622L283.476 149.93L283.625 148.862C283.682 148.464 283.636 148.058 283.491 147.684C283.347 147.31 283.108 146.98 282.799 146.728C282.491 146.475 282.122 146.308 281.731 146.244C281.339 146.179 280.937 146.219 280.565 146.359C280.227 146.494 279.863 146.55 279.501 146.524C279.138 146.498 278.786 146.39 278.469 146.208C278.152 146.032 277.876 145.787 277.662 145.492C277.447 145.197 277.299 144.857 277.227 144.498L276.677 141.811L276.619 141.667C273.941 137.145 268.792 133.856 262.491 132.65C256.882 131.569 251.131 132.119 245.587 132.637C243.388 132.847 240.903 133.083 238.833 134.367C237.074 135.468 235.586 137.67 235.89 139.891C230.424 138.194 224.563 141.582 221.658 145.854C218.216 150.939 217.654 157.309 217.563 162.289C217.317 174.071 219.717 183.711 224.679 190.945C225.041 191.47 225.132 192.564 225.85 192.931L225.701 192.689C226.503 193.095 227.318 193.75 227.014 194.451C226.141 196.47 231.944 200.932 236.032 202.407C243.491 205.1 253.408 204.871 260.382 203.901L260.628 202.23C263.144 201.882 264.917 201.221 265.415 200.185C266.295 199.425 267.045 198.743 267.698 198.114L267.705 198.108C267.718 198.095 267.744 198.075 267.757 198.062C270.907 195.002 271.638 193.259 271.968 190.605C272.285 188.003 271.722 185.362 271.146 182.984C283.269 184.884 266.372 169.904 277.667 167.007C277.797 166.967 277.929 166.934 278.062 166.909C278.392 166.83 278.722 166.752 279.039 166.66C280.567 166.24 282.03 165.607 283.386 164.779C286.543 162.833 287.584 160.251 289.215 157.342C289.45 156.927 289.548 156.448 289.496 155.973C289.444 155.498 289.243 155.052 288.923 154.701Z" fill="#2F2E41"/>
<path d="M351.913 302.379C351.906 303.526 351.893 305.132 351.842 307.117C351.835 307.392 351.829 307.674 351.822 307.963C351.738 311.613 351.654 314.673 351.518 318.074C351.512 318.31 351.505 318.539 351.492 318.775C351.311 323.519 351.026 329.044 350.535 337.792C349.623 353.951 348.031 340.013 346.433 345.682C346.356 345.963 346.272 346.298 346.194 346.691C345.952 348.117 345.544 349.51 344.978 350.839C344.13 351.35 343.257 351.841 342.397 352.333C339.945 353.716 337.454 355.046 334.944 356.311C333.534 357.018 332.117 357.713 330.694 358.381C330.468 358.486 330.248 358.591 330.028 358.689C322.74 362.104 315.229 365.007 307.548 367.379C306.047 367.837 304.553 368.283 303.039 368.696C301.46 369.141 299.882 369.561 298.284 369.954C286.397 372.91 274.234 374.577 261.999 374.928C260.349 374.98 258.687 375 257.018 375C256.19 375 255.375 374.993 254.547 374.987C254.294 374.987 254.042 374.98 253.79 374.973C253.059 374.954 252.302 374.941 251.539 374.921C236.775 374.455 222.133 372.069 207.969 367.824L207.368 367.647C206.436 367.359 205.511 367.077 204.586 366.776C200.316 365.406 196.109 363.873 191.965 362.176C188.801 360.885 185.675 359.5 182.585 358.021C182.556 358.013 182.53 358 182.507 357.982C181.86 357.68 181.207 357.366 180.56 357.045C180.476 356.999 180.385 356.953 180.295 356.907C177.882 355.714 175.494 354.465 173.133 353.159C171.147 348.539 168.353 347.654 166.619 343.591C166.114 342.384 165.75 341.122 165.532 339.83C165.532 339.817 165.526 339.804 165.526 339.784C165.707 342.222 164.756 335.459 165.519 339.758C165.513 339.679 165.506 339.594 165.5 339.496C165.48 339.26 165.455 338.971 165.416 338.611C163.197 316.665 163.339 291.567 162.375 270.886C162.311 269.549 162.244 268.269 162.175 267.046C162.155 266.639 162.129 266.24 162.104 265.847C162.149 265.729 162.201 265.604 162.259 265.486C162.271 265.452 162.286 265.419 162.304 265.388C162.323 265.347 162.345 265.308 162.369 265.27C162.382 265.25 162.401 265.224 162.414 265.204C162.423 265.182 162.434 265.16 162.446 265.139C162.505 265.047 162.569 264.949 162.64 264.857C162.673 264.818 162.699 264.785 162.731 264.752C162.753 264.719 162.779 264.688 162.809 264.66C162.828 264.629 162.852 264.6 162.88 264.575C162.906 264.549 162.932 264.516 162.964 264.484C162.978 264.463 162.995 264.445 163.016 264.431C163.067 264.372 163.123 264.317 163.184 264.267C163.415 264.052 163.661 263.855 163.921 263.677C164.012 263.619 164.109 263.56 164.199 263.494C164.851 263.099 165.538 262.766 166.25 262.498C166.496 262.406 166.742 262.321 167.007 262.229C167.104 262.203 167.195 262.17 167.292 262.138C167.434 262.092 167.576 262.046 167.725 262.013C168.463 261.79 169.258 261.6 170.119 261.423C170.222 261.404 170.332 261.384 170.442 261.358C170.597 261.325 170.759 261.299 170.921 261.273C171.141 261.233 171.367 261.194 171.594 261.155C173.515 260.847 175.695 260.617 178.102 260.467C178.328 260.453 178.554 260.44 178.781 260.427C179.046 260.414 179.311 260.401 179.583 260.388C179.809 260.375 180.042 260.368 180.275 260.362C180.502 260.349 180.734 260.342 180.974 260.335C181.627 260.316 182.3 260.296 182.986 260.283C184.939 260.244 186.997 260.257 189.157 260.303C190.16 260.329 191.182 260.355 192.23 260.401C192.301 260.401 192.366 260.408 192.431 260.408C193.343 260.44 194.261 260.48 195.206 260.532C195.866 260.565 196.532 260.598 197.198 260.637C197.826 260.676 198.46 260.716 199.1 260.761C199.598 260.788 200.096 260.827 200.601 260.86C201.028 260.892 201.455 260.925 201.882 260.951L202.464 260.991C202.781 261.017 203.098 261.037 203.421 261.069C204.133 261.128 204.845 261.187 205.569 261.246C206.287 261.312 207.018 261.377 207.749 261.443C208.48 261.508 209.218 261.581 209.955 261.653C210.033 261.659 210.104 261.666 210.175 261.672C210.848 261.744 211.521 261.81 212.2 261.882C212.355 261.895 212.517 261.908 212.672 261.928C213.32 261.994 213.98 262.071 214.634 262.141C214.834 262.163 215.034 262.184 215.235 262.207C215.747 262.263 216.252 262.312 216.767 262.373C217.446 262.452 218.139 262.524 218.811 262.616C219.335 262.675 219.859 262.734 220.383 262.799C221.205 262.898 222.039 263.003 222.874 263.114C223.191 263.153 223.508 263.193 223.825 263.238C226.206 263.54 228.612 263.874 231.057 264.221C234.764 264.752 238.529 265.329 242.32 265.951C246.117 266.574 249.936 267.231 253.777 267.924C254.747 268.101 255.717 268.278 256.694 268.461C257.134 268.546 257.574 268.631 258.014 268.717C258.764 268.854 259.515 268.998 260.265 269.143C261.016 269.287 261.766 269.431 262.516 269.582C263.409 269.759 264.308 269.936 265.201 270.112C271.082 271.292 276.93 272.55 282.635 273.867C283.573 274.084 284.511 274.306 285.443 274.523C287.306 274.962 289.152 275.407 290.98 275.859C291.485 275.977 291.983 276.102 292.481 276.226C293.723 276.541 294.965 276.856 296.188 277.177L296.402 277.236C297.301 277.458 298.181 277.688 299.06 277.924C301.137 278.474 303.179 279.031 305.186 279.595C306.519 279.968 307.837 280.346 309.139 280.728C311.086 281.298 312.995 281.875 314.851 282.458C315.311 282.603 315.77 282.747 316.223 282.884C317.581 283.31 318.92 283.743 320.221 284.175C321.256 284.516 322.265 284.863 323.261 285.211C324.257 285.558 325.234 285.905 326.192 286.253C326.806 286.475 327.414 286.711 328.022 286.934C328.896 287.262 329.756 287.589 330.597 287.917C330.856 288.015 331.108 288.12 331.36 288.218C331.522 288.29 331.677 288.349 331.833 288.415C332.137 288.539 332.447 288.657 332.745 288.782C333.049 288.9 333.346 289.024 333.644 289.155C333.935 289.273 334.233 289.398 334.517 289.522C334.808 289.64 335.093 289.765 335.378 289.896C335.617 289.994 335.85 290.099 336.076 290.204C336.536 290.407 336.995 290.61 337.441 290.82C337.661 290.925 337.881 291.023 338.101 291.128L338.606 291.364C338.677 291.403 338.748 291.436 338.819 291.469C338.981 291.547 339.149 291.633 339.311 291.711C339.686 291.888 340.055 292.078 340.417 292.255C340.902 292.504 341.375 292.753 341.827 292.996C342.287 293.245 342.733 293.494 343.16 293.736C343.231 293.775 343.296 293.815 343.367 293.854C343.464 293.906 343.561 293.965 343.658 294.018C343.988 294.208 344.305 294.404 344.622 294.594C345.243 294.981 345.832 295.361 346.382 295.741C346.504 295.826 346.621 295.912 346.744 295.99C347.151 296.285 347.54 296.573 347.902 296.868C347.902 296.875 347.902 296.875 347.908 296.875C348.031 296.967 348.148 297.065 348.264 297.157C348.361 297.248 348.465 297.327 348.562 297.419C348.898 297.714 349.209 297.995 349.493 298.284C349.589 298.373 349.679 298.467 349.765 298.566C349.803 298.597 349.837 298.632 349.868 298.67C349.998 298.801 350.114 298.932 350.224 299.064C350.241 299.082 350.256 299.101 350.27 299.123C350.425 299.306 350.567 299.49 350.703 299.673C350.768 299.765 350.839 299.856 350.897 299.948C350.975 300.06 351.052 300.178 351.117 300.289C351.175 300.381 351.227 300.479 351.279 300.571C351.416 300.807 351.533 301.055 351.628 301.311C351.701 301.485 351.759 301.665 351.803 301.849C351.852 302.023 351.888 302.2 351.913 302.379Z" fill="#2A2B2E"/>
<path opacity="0.2" d="M351.912 302.379C351.906 303.526 351.893 305.132 351.841 307.117C351.835 307.392 351.822 307.674 351.815 307.962C351.751 310.747 351.654 314.188 351.518 318.074C351.511 318.31 351.505 318.539 351.492 318.775C351.311 323.519 351.026 329.043 350.534 337.792C349.622 353.951 348.031 340.013 346.433 345.681C341.995 342.916 337.131 340.02 331.929 337.045C330.991 336.507 330.045 335.968 329.089 335.426C318.687 329.548 307.069 323.388 294.939 317.287C294.461 317.045 293.975 316.802 293.497 316.567C265.712 302.655 235.385 289.123 210.815 280.093C206.073 278.349 201.545 276.777 197.288 275.394C188.322 272.491 180.572 270.46 174.608 269.582C168.398 268.664 164.109 268.992 162.375 270.886C162.31 269.549 162.243 268.269 162.174 267.046C162.148 266.639 162.123 266.24 162.097 265.846C162.137 265.738 162.188 265.636 162.239 265.532C162.246 265.517 162.251 265.501 162.258 265.486C162.271 265.452 162.286 265.419 162.304 265.388C162.323 265.347 162.344 265.308 162.368 265.27C162.389 265.223 162.415 265.179 162.446 265.139C162.504 265.047 162.569 264.949 162.64 264.857C162.692 264.788 162.749 264.722 162.808 264.66C162.828 264.629 162.852 264.6 162.879 264.575C162.905 264.549 162.931 264.516 162.964 264.483C162.977 264.463 162.995 264.445 163.015 264.431C163.066 264.371 163.123 264.317 163.183 264.267C163.414 264.052 163.661 263.855 163.921 263.677C164.011 263.618 164.109 263.559 164.199 263.494C164.851 263.099 165.538 262.765 166.25 262.498C166.496 262.406 166.741 262.321 167.007 262.229C167.104 262.203 167.194 262.17 167.291 262.137C167.434 262.091 167.576 262.046 167.725 262.013C168.462 261.79 169.258 261.6 170.118 261.423C170.377 261.371 170.649 261.318 170.921 261.272C171.14 261.233 171.367 261.194 171.593 261.154C173.515 260.846 175.695 260.617 178.101 260.466C178.328 260.453 178.554 260.44 178.78 260.427C179.046 260.414 179.311 260.401 179.583 260.388C179.809 260.375 180.042 260.368 180.275 260.361C180.501 260.348 180.734 260.342 180.973 260.335C181.627 260.316 182.3 260.296 182.985 260.283C184.939 260.25 186.996 260.263 189.157 260.309C190.16 260.329 191.182 260.361 192.23 260.407C192.294 260.407 192.366 260.414 192.43 260.414C193.342 260.44 194.267 260.486 195.205 260.532C195.865 260.565 196.532 260.597 197.198 260.637C197.825 260.676 198.459 260.715 199.1 260.761C199.598 260.787 200.096 260.827 200.601 260.86C201.028 260.892 201.455 260.925 201.881 260.951C202.393 260.991 202.904 261.03 203.421 261.069C204.133 261.128 204.844 261.187 205.569 261.246C206.287 261.312 207.018 261.377 207.749 261.443C208.48 261.508 209.217 261.58 209.955 261.652C210.033 261.659 210.104 261.666 210.175 261.672C210.848 261.744 211.52 261.81 212.2 261.882C215.965 262.268 219.84 262.721 223.825 263.238C226.205 263.546 228.616 263.876 231.057 264.228C234.764 264.759 238.529 265.335 242.32 265.951C246.117 266.574 249.936 267.231 253.776 267.924C254.747 268.101 255.717 268.277 256.694 268.461C257.884 268.684 259.075 268.911 260.265 269.142C261.015 269.287 261.766 269.431 262.516 269.582C263.409 269.758 264.308 269.935 265.201 270.112C271.081 271.292 276.929 272.55 282.635 273.867C283.573 274.083 284.511 274.306 285.443 274.522C287.306 274.962 289.152 275.407 290.98 275.859C291.485 275.984 291.983 276.108 292.481 276.233C293.729 276.547 294.965 276.862 296.188 277.176V277.183C296.259 277.196 296.33 277.216 296.401 277.235C297.294 277.465 298.18 277.694 299.06 277.93C301.137 278.481 303.179 279.035 305.186 279.595C306.519 279.975 307.839 280.348 309.139 280.728C311.086 281.305 312.994 281.881 314.851 282.458C315.31 282.602 315.77 282.747 316.222 282.884C317.581 283.317 318.914 283.747 320.22 284.175C321.255 284.516 322.265 284.863 323.261 285.21C324.257 285.558 325.234 285.905 326.191 286.252C326.812 286.475 327.42 286.704 328.022 286.927C328.902 287.255 329.756 287.583 330.597 287.917C330.855 288.015 331.108 288.12 331.36 288.218C331.832 288.402 332.292 288.592 332.744 288.782C333.049 288.9 333.346 289.024 333.644 289.155C333.935 289.273 334.232 289.398 334.517 289.522C334.808 289.64 335.093 289.765 335.377 289.896C335.617 289.994 335.85 290.099 336.076 290.204C336.535 290.407 336.995 290.61 337.441 290.82C337.661 290.925 337.881 291.023 338.101 291.128L338.605 291.364C338.677 291.403 338.748 291.436 338.819 291.469C339.369 291.731 339.899 291.993 340.417 292.255C340.902 292.504 341.374 292.753 341.827 292.995C342.364 293.284 342.875 293.565 343.367 293.854C343.464 293.906 343.561 293.965 343.658 294.018C343.988 294.208 344.305 294.404 344.622 294.594C345.243 294.981 345.831 295.361 346.381 295.741C346.925 296.121 347.429 296.495 347.902 296.868C347.902 296.875 347.902 296.875 347.908 296.875C348.134 297.058 348.354 297.242 348.561 297.419C348.898 297.713 349.208 297.995 349.493 298.284C349.588 298.373 349.679 298.467 349.765 298.565C349.802 298.597 349.837 298.632 349.868 298.67C350.004 298.821 350.14 298.972 350.269 299.122C350.425 299.306 350.567 299.489 350.703 299.673C350.767 299.765 350.839 299.856 350.897 299.948C350.974 300.059 351.052 300.177 351.117 300.289C351.175 300.381 351.227 300.479 351.278 300.571C351.416 300.807 351.533 301.055 351.628 301.311C351.699 301.486 351.757 301.665 351.802 301.848C351.851 302.023 351.888 302.2 351.912 302.379Z" fill="black"/>
</g>
<defs>
<clipPath id="clip0_437_4300">
<rect width="509" height="375" fill="white"/>
</clipPath>
</defs>
</svg>
